<svg width="512" height="512" viewBox="0 0 512 512" fill="none" xmlns="http://www.w3.org/2000/svg">
<rect width="512" height="512" fill="white"/>
<path d="M259.5 211C309.5 177 328.5 131.5 326 95C429.612 151.672 368 216 314 255.5C260 295 212.68 346.45 228.5 415.5C188.412 399.575 185 312.5 173.5 295.5C162 278.5 124 257 101.5 268.5C99 242 120.5 244.084 124 244.084C143 198.313 209.5 245 259.5 211Z" fill="#214EB3"/>
<path d="M153.5 251C148.248 251.656 143 244.084 143 244.084L169.5 240.5C169.5 240.5 161.5 250 153.5 251Z" fill="white"/>
<path d="M355 335C314 356 268 358.5 233.5 417.5C226.27 375 249.5 318.5 279 300.5C308.5 282.5 382 272.5 412 192.5C436.5 282.5 396 314 355 335Z" fill="#05A2AB"/>
</svg>
