<svg width="891" height="378" viewBox="0 0 891 378" fill="none" xmlns="http://www.w3.org/2000/svg">
<g clip-path="url(#clip0_100_2)">
<path d="M194.5 144C244.5 110 263.5 64.5 261 28C364.612 84.6718 303 149 249 188.5C195 228 147.68 279.45 163.5 348.5C123.412 332.575 120 245.5 108.5 228.5C97.0001 211.5 59.0001 190 36.5 201.5C34.0001 175 55.5001 177.084 59.0001 177.084C78.0001 131.313 144.5 178 194.5 144Z" fill="#214EB3"/>
<path d="M88.5 184C83.2485 184.656 78 177.084 78 177.084L104.5 173.5C104.5 173.5 96.5 183 88.5 184Z" fill="white"/>
<path d="M290 268C249 289 203 291.5 168.5 350.5C161.27 308 184.5 251.5 214 233.5C243.5 215.5 317 205.5 347 125.5C371.5 215.5 331 247 290 268Z" fill="#05A2AB"/>
<path d="M522 107.56H572.56V121.32H454.8V107.56H506.16V90.6H522V107.56ZM521.84 211.72H583.6V226.28H444.08V211.72H506V190.12H496.24C489.413 190.12 483.387 188.893 478.16 186.44C473.04 183.987 469.04 180.627 466.16 176.36C463.387 171.987 462 167.08 462 161.64C462 156.093 463.387 151.187 466.16 146.92C469.04 142.547 473.04 139.187 478.16 136.84C483.387 134.387 489.413 133.16 496.24 133.16H531.28C538.107 133.16 544.08 134.387 549.2 136.84C554.427 139.187 558.427 142.547 561.2 146.92C564.08 151.187 565.52 156.093 565.52 161.64C565.52 167.08 564.08 171.987 561.2 176.36C558.427 180.627 554.427 183.987 549.2 186.44C544.08 188.893 538.107 190.12 531.28 190.12H521.84V211.72ZM478 161.64C478 166.013 479.813 169.587 483.44 172.36C487.173 175.027 492.507 176.36 499.44 176.36H527.92C534.853 176.36 540.133 175.027 543.76 172.36C547.493 169.587 549.36 166.013 549.36 161.64C549.36 157.267 547.493 153.747 543.76 151.08C540.133 148.307 534.853 146.92 527.92 146.92H499.44C492.507 146.92 487.173 148.307 483.44 151.08C479.813 153.747 478 157.267 478 161.64ZM676.759 154.92C673.772 161.853 669.132 167.133 662.839 170.76C656.545 174.28 649.292 176.04 641.079 176.04C633.612 176.04 626.892 174.547 620.919 171.56C614.945 168.573 610.199 164.093 606.679 158.12C603.265 152.147 601.559 144.84 601.559 136.2V133.16C601.559 124.413 603.265 117.053 606.679 111.08C610.199 105 614.945 100.52 620.919 97.64C626.892 94.6533 633.612 93.16 641.079 93.16C648.439 93.16 654.999 94.6 660.759 97.48C666.625 100.253 671.212 104.467 674.519 110.12H707.159V89.16H723.159V200.36H707.159V154.92H676.759ZM617.559 135.88C617.559 144.307 619.745 150.76 624.119 155.24C628.492 159.72 634.145 161.96 641.079 161.96C647.905 161.96 653.452 159.72 657.719 155.24C662.092 150.76 664.279 144.307 664.279 135.88V133.32C664.279 124.893 662.092 118.44 657.719 113.96C653.452 109.48 647.905 107.24 641.079 107.24C634.145 107.24 628.492 109.48 624.119 113.96C619.745 118.44 617.559 124.893 617.559 133.32V135.88ZM707.159 123.08H679.319C679.959 126.067 680.279 129.427 680.279 133.16V136.2C680.279 137.48 680.172 139.4 679.959 141.96H707.159V123.08ZM640.919 189.48V223.08H729.399V237.64H624.919V189.48H640.919Z" fill="black"/>
<path d="M462.576 255.752H477.984V258.776H443.472V255.752H459.168V250.328H462.576V255.752ZM462.48 287.432H481.488V290.552H440.016V287.432H459.072V279.752H455.904C453.824 279.752 452 279.4 450.432 278.696C448.864 277.96 447.648 276.968 446.784 275.72C445.952 274.44 445.536 272.984 445.536 271.352C445.536 269.72 445.952 268.264 446.784 266.984C447.648 265.672 448.864 264.664 450.432 263.96C452 263.224 453.824 262.856 455.904 262.856H465.504C467.584 262.856 469.408 263.224 470.976 263.96C472.544 264.664 473.744 265.672 474.576 266.984C475.44 268.264 475.872 269.72 475.872 271.352C475.872 272.984 475.44 274.44 474.576 275.72C473.744 276.968 472.544 277.96 470.976 278.696C469.408 279.4 467.584 279.752 465.504 279.752H462.48V287.432ZM449.04 271.304C449.04 272.904 449.712 274.216 451.056 275.24C452.4 276.232 454.288 276.728 456.72 276.728H464.688C467.152 276.728 469.056 276.232 470.4 275.24C471.744 274.248 472.416 272.936 472.416 271.304C472.416 269.704 471.744 268.408 470.4 267.416C469.056 266.424 467.152 265.928 464.688 265.928H456.72C454.288 265.928 452.4 266.424 451.056 267.416C449.712 268.408 449.04 269.704 449.04 271.304ZM519.468 265.832V249.896H522.924V294.2H519.468V269H508.092V265.832H519.468ZM501.18 258.152C501.18 261.992 500.7 265.64 499.74 269.096L513.516 285.32L510.972 287.576L498.492 272.84C496.38 278.12 492.86 283.192 487.932 288.056L485.532 285.704C489.692 281.608 492.78 277.368 494.796 272.984C496.812 268.568 497.82 263.624 497.82 258.152V252.632H501.18V258.152ZM553.511 277.976V287.48H572.519V290.648H531.047V287.48H550.103V277.976H536.423V263.96H563.735V256.28H536.183V253.16H567.191V267.032H539.831V274.904H568.151V277.976H553.511ZM625.675 294.2H622.219V249.896H625.675V294.2ZM601.531 288.296C598.171 288.296 595.435 287.096 593.323 284.696C591.211 282.264 590.155 278.568 590.155 273.608V266.984C590.155 262.024 591.211 258.344 593.323 255.944C595.435 253.512 598.171 252.296 601.531 252.296C604.891 252.296 607.627 253.512 609.739 255.944C611.851 258.344 612.907 262.024 612.907 266.984V273.608C612.907 278.568 611.851 282.264 609.739 284.696C607.627 287.096 604.891 288.296 601.531 288.296ZM601.531 285.128C603.963 285.128 605.899 284.184 607.339 282.296C608.779 280.408 609.499 277.496 609.499 273.56V266.984C609.499 263.048 608.779 260.152 607.339 258.296C605.899 256.408 603.963 255.464 601.531 255.464C599.099 255.464 597.163 256.408 595.723 258.296C594.315 260.152 593.611 263.048 593.611 266.984V273.56C593.611 277.496 594.315 280.408 595.723 282.296C597.163 284.184 599.099 285.128 601.531 285.128ZM667.734 249.896H671.19V294.2H667.734V270.824H658.422V273.608C658.422 278.568 657.366 282.264 655.254 284.696C653.142 287.096 650.406 288.296 647.046 288.296C643.686 288.296 640.95 287.096 638.838 284.696C636.726 282.264 635.67 278.568 635.67 273.608V266.984C635.67 262.024 636.726 258.344 638.838 255.944C640.95 253.512 643.686 252.296 647.046 252.296C650.406 252.296 653.142 253.512 655.254 255.944C657.366 258.344 658.422 262.024 658.422 266.984V267.704H667.734V249.896ZM655.014 266.984C655.014 263.048 654.294 260.152 652.854 258.296C651.414 256.408 649.478 255.464 647.046 255.464C644.614 255.464 642.678 256.408 641.238 258.296C639.83 260.152 639.126 263.048 639.126 266.984V273.56C639.126 277.496 639.83 280.408 641.238 282.296C642.678 284.184 644.614 285.128 647.046 285.128C649.478 285.128 651.414 284.184 652.854 282.296C654.294 280.408 655.014 277.496 655.014 273.56V266.984ZM713.298 249.896H716.706V283.544H713.298V249.896ZM692.946 266.552C690.77 270.424 687.042 274.12 681.762 277.64L679.938 274.952C684.002 272.104 687.042 269.256 689.058 266.408C691.074 263.528 692.082 260.28 692.082 256.664V255.608H681.666V252.536H705.858V255.608H695.442V256.664C695.442 259.096 695.058 261.4 694.29 263.576L707.586 273.992L705.666 276.68L692.946 266.552ZM691.65 280.712V291.032H718.77V294.2H688.242V280.712H691.65ZM773.942 283.544H770.486V249.896H773.942V283.544ZM749.942 275.576C747.766 275.576 745.798 275.144 744.038 274.28C742.31 273.416 740.934 272.12 739.91 270.392C738.886 268.664 738.374 266.536 738.374 264.008V263C738.374 260.472 738.886 258.328 739.91 256.568C740.934 254.808 742.31 253.496 744.038 252.632C745.798 251.768 747.766 251.336 749.942 251.336C752.086 251.336 754.022 251.768 755.75 252.632C757.51 253.496 758.886 254.808 759.878 256.568C760.902 258.328 761.414 260.472 761.414 263V264.008C761.414 266.536 760.902 268.664 759.878 270.392C758.886 272.12 757.51 273.416 755.75 274.28C754.022 275.144 752.086 275.576 749.942 275.576ZM749.942 272.504C752.342 272.504 754.278 271.768 755.75 270.296C757.254 268.824 758.006 266.712 758.006 263.96V263C758.006 260.248 757.254 258.136 755.75 256.664C754.278 255.16 752.342 254.408 749.942 254.408C747.542 254.408 745.59 255.16 744.086 256.664C742.582 258.136 741.83 260.248 741.83 263V263.96C741.83 266.712 742.566 268.824 744.038 270.296C745.542 271.768 747.51 272.504 749.942 272.504ZM776.006 294.2H745.43V280.04H748.886V291.032H776.006V294.2ZM805.969 268.856C805.169 271.032 803.825 272.696 801.937 273.848C800.049 275 797.873 275.576 795.409 275.576C793.233 275.576 791.265 275.144 789.505 274.28C787.777 273.416 786.401 272.12 785.377 270.392C784.385 268.664 783.889 266.536 783.889 264.008V263C783.889 260.472 784.385 258.328 785.377 256.568C786.401 254.808 787.777 253.496 789.505 252.632C791.265 251.768 793.233 251.336 795.409 251.336C797.585 251.336 799.537 251.784 801.265 252.68C803.025 253.576 804.385 254.904 805.345 256.664H816.001V249.896H819.457V283.544H816.001V268.856H805.969ZM787.345 263.96C787.345 266.712 788.081 268.824 789.553 270.296C791.057 271.768 793.009 272.504 795.409 272.504C797.777 272.504 799.697 271.768 801.169 270.296C802.641 268.824 803.377 266.712 803.377 263.96V263C803.377 260.248 802.641 258.136 801.169 256.664C799.697 255.16 797.777 254.408 795.409 254.408C793.009 254.408 791.057 255.16 789.553 256.664C788.081 258.136 787.345 260.248 787.345 263V263.96ZM816.001 259.64H806.449C806.673 260.824 806.785 261.944 806.785 263V264.008C806.785 264.488 806.753 265.144 806.689 265.976H816.001V259.64ZM794.401 280.04V291.032H821.521V294.2H790.945V280.04H794.401Z" fill="#606060"/>
</g>
<defs>
<clipPath id="clip0_100_2">
<rect width="891" height="378" fill="white"/>
</clipPath>
</defs>
</svg>
