<svg width="434" height="54" viewBox="0 0 434 54" fill="none" xmlns="http://www.w3.org/2000/svg">
<rect width="207" height="54" rx="27" fill="url(#paint0_linear_593_11)"/>
<rect x="7" y="5" width="44" height="44" rx="22" fill="white"/>
<path d="M74.354 25.476C75.266 25.476 76.076 25.68 76.784 26.088C77.504 26.496 78.062 27.066 78.458 27.798C78.866 28.518 79.07 29.346 79.07 30.282C79.07 31.218 78.86 32.052 78.44 32.784C78.02 33.504 77.426 34.062 76.658 34.458C75.902 34.866 75.026 35.07 74.03 35.07C72.938 35.07 71.93 34.83 71.006 34.35C70.094 33.87 69.44 33.18 69.044 32.28L70.574 31.416C70.862 32.076 71.306 32.574 71.906 32.91C72.506 33.246 73.184 33.414 73.94 33.414C74.96 33.414 75.77 33.132 76.37 32.568C76.982 31.992 77.288 31.23 77.288 30.282C77.288 29.334 76.988 28.572 76.388 27.996C75.788 27.42 75.002 27.132 74.03 27.132C73.334 27.132 72.74 27.306 72.248 27.654C71.768 27.99 71.396 28.476 71.132 29.112H69.476L70.394 20.22H78.548V21.876H71.942L71.384 26.772C71.744 26.352 72.182 26.034 72.698 25.818C73.214 25.59 73.766 25.476 74.354 25.476ZM84.4275 26.646C83.7675 26.646 83.1855 26.502 82.6815 26.214C82.1895 25.926 81.8115 25.53 81.5475 25.026C81.2835 24.522 81.1515 23.952 81.1515 23.316C81.1515 22.68 81.2835 22.116 81.5475 21.624C81.8115 21.12 82.1895 20.724 82.6815 20.436C83.1855 20.148 83.7675 20.004 84.4275 20.004C85.0875 20.004 85.6635 20.148 86.1555 20.436C86.6595 20.724 87.0435 21.12 87.3075 21.624C87.5715 22.116 87.7035 22.68 87.7035 23.316C87.7035 23.952 87.5715 24.522 87.3075 25.026C87.0435 25.53 86.6595 25.926 86.1555 26.214C85.6635 26.502 85.0875 26.646 84.4275 26.646ZM84.4275 25.548C85.0635 25.548 85.5735 25.344 85.9575 24.936C86.3535 24.528 86.5515 23.988 86.5515 23.316C86.5515 22.644 86.3535 22.11 85.9575 21.714C85.5735 21.306 85.0635 21.102 84.4275 21.102C83.7795 21.102 83.2635 21.306 82.8795 21.714C82.4955 22.11 82.3035 22.644 82.3035 23.316C82.3035 23.988 82.4955 24.528 82.8795 24.936C83.2635 25.344 83.7795 25.548 84.4275 25.548ZM95.586 35.016C94.47 35.016 93.456 34.77 92.544 34.278C91.644 33.786 90.924 33.078 90.384 32.154C89.856 31.218 89.592 30.114 89.592 28.842V26.16C89.592 24.9 89.856 23.808 90.384 22.884C90.924 21.948 91.65 21.234 92.562 20.742C93.474 20.25 94.482 20.004 95.586 20.004C97.002 20.004 98.196 20.4 99.168 21.192C100.14 21.972 100.806 23.058 101.166 24.45L99.924 24.792C99.612 23.616 99.09 22.728 98.358 22.128C97.638 21.516 96.714 21.21 95.586 21.21C94.698 21.21 93.9 21.408 93.192 21.804C92.484 22.188 91.926 22.764 91.518 23.532C91.11 24.288 90.906 25.212 90.906 26.304V28.716C90.906 29.808 91.11 30.738 91.518 31.506C91.926 32.262 92.484 32.832 93.192 33.216C93.9 33.612 94.698 33.81 95.586 33.81C96.726 33.81 97.656 33.51 98.376 32.91C99.096 32.31 99.612 31.422 99.924 30.246L101.166 30.588C100.818 31.98 100.152 33.066 99.168 33.846C98.196 34.626 97.002 35.016 95.586 35.016ZM115.677 21.318H121.455V22.452H108.513V21.318H114.399V19.248H115.677V21.318ZM116.775 24.018C117.555 24.018 118.239 24.156 118.827 24.432C119.415 24.708 119.865 25.092 120.177 25.584C120.501 26.076 120.663 26.634 120.663 27.258C120.663 27.87 120.501 28.422 120.177 28.914C119.865 29.394 119.415 29.772 118.827 30.048C118.239 30.324 117.555 30.462 116.775 30.462H113.175C112.395 30.462 111.711 30.324 111.123 30.048C110.535 29.772 110.079 29.394 109.755 28.914C109.443 28.422 109.287 27.87 109.287 27.258C109.287 26.634 109.443 26.076 109.755 25.584C110.079 25.092 110.535 24.708 111.123 24.432C111.711 24.156 112.395 24.018 113.175 24.018H116.775ZM119.367 27.24C119.367 26.628 119.115 26.13 118.611 25.746C118.107 25.362 117.393 25.17 116.469 25.17H113.481C112.569 25.17 111.861 25.362 111.357 25.746C110.853 26.13 110.601 26.628 110.601 27.24C110.601 27.852 110.853 28.356 111.357 28.752C111.861 29.136 112.569 29.328 113.481 29.328H116.469C117.393 29.328 118.107 29.136 118.611 28.752C119.115 28.356 119.367 27.852 119.367 27.24ZM107.217 34.332V33.162H122.769V34.332H107.217ZM138.325 28.446H137.047V19.086H138.325V28.446ZM125.275 27.924V23.316H131.737V21.12H125.275V19.986H133.015V24.432H126.535V26.772H128.299C129.319 26.772 130.435 26.724 131.647 26.628C132.871 26.52 134.005 26.382 135.049 26.214L135.211 27.33C134.191 27.51 133.045 27.654 131.773 27.762C130.501 27.87 129.271 27.924 128.083 27.924H125.275ZM138.325 35.7H127.651V29.616H138.325V35.7ZM128.929 30.768V34.53H137.047V30.768H128.929Z" fill="black"/>
<rect x="160" width="274" height="54" rx="27" fill="url(#paint1_linear_593_11)"/>
<rect x="166" y="5" width="261" height="44" rx="22" fill="white"/>
<path d="M202.561 19.8074C202.41 19.8074 202.257 19.8119 202.105 19.8208C200.858 16.9477 197.865 15 194.564 15C190.064 15 186.403 18.4983 186.403 22.7982C186.403 22.8133 186.403 22.8283 186.404 22.8435C183.385 23.0647 181 25.4849 181 28.428C181 31.5162 183.626 34.0287 186.855 34.0287H202.561C206.663 34.0287 210 30.8388 210 26.9181C210 22.9972 206.663 19.8074 202.561 19.8074ZM202.561 32.1665H186.855C184.68 32.1665 182.91 30.4893 182.91 28.428C182.91 26.3665 184.68 24.6892 186.855 24.6892C186.989 24.6892 187.138 24.6992 187.324 24.7203C187.619 24.7543 187.913 24.652 188.12 24.4444C188.327 24.2369 188.423 23.9474 188.38 23.661C188.336 23.3657 188.314 23.0753 188.314 22.7981C188.314 19.5251 191.117 16.8622 194.564 16.8622C197.307 16.8622 199.769 18.6048 200.552 21.0997C200.693 21.5465 201.151 21.8232 201.624 21.7455C201.932 21.6951 202.247 21.6697 202.561 21.6697C205.61 21.6697 208.09 24.0242 208.09 26.9181C208.09 29.8121 205.61 32.1665 202.561 32.1665Z" fill="#095373"/>
<path d="M185.67 39.4265L188.406 36.759C188.779 36.3954 188.779 35.8058 188.406 35.4423C188.033 35.0786 187.428 35.0786 187.055 35.4423L184.319 38.1097C183.946 38.4734 183.946 39.063 184.319 39.4266C184.506 39.6083 184.75 39.6994 184.995 39.6994C185.239 39.6991 185.483 39.6082 185.67 39.4265Z" fill="#095373"/>
<path d="M191.507 39.4265L194.243 36.759C194.616 36.3954 194.616 35.8058 194.243 35.4422C193.87 35.0785 193.265 35.0786 192.892 35.4423L190.156 38.1097C189.783 38.4734 189.783 39.063 190.156 39.4266C190.343 39.6083 190.587 39.6992 190.831 39.6992C191.076 39.6991 191.321 39.6082 191.507 39.4265Z" fill="#095373"/>
<path d="M197.344 39.4265L200.08 36.759C200.453 36.3954 200.453 35.8058 200.08 35.4422C199.707 35.0785 199.102 35.0786 198.729 35.4423L195.993 38.1097C195.62 38.4734 195.62 39.063 195.993 39.4266C196.18 39.6083 196.424 39.6992 196.669 39.6992C196.913 39.6991 197.158 39.6082 197.344 39.4265Z" fill="#095373"/>
<path d="M204.566 35.4422L201.83 38.1096C201.457 38.4733 201.457 39.0628 201.83 39.4265C202.017 39.6082 202.261 39.6992 202.505 39.6992C202.75 39.6992 202.994 39.6083 203.181 39.4265L205.917 36.759C206.29 36.3954 206.29 35.8058 205.917 35.4423C205.544 35.0785 204.939 35.0785 204.566 35.4422Z" fill="#095373"/>
<path d="M187.456 39.743L184.72 42.4105C184.347 42.7742 184.347 43.3637 184.72 43.7274C184.907 43.9091 185.151 44 185.396 44C185.64 44 185.884 43.9091 186.071 43.7272L188.807 41.0598C189.18 40.6961 189.18 40.1066 188.807 39.7429C188.434 39.3794 187.829 39.3794 187.456 39.743Z" fill="#095373"/>
<path d="M193.31 39.743L190.574 42.4105C190.201 42.7742 190.201 43.3637 190.574 43.7274C190.761 43.9091 191.005 44 191.25 44C191.494 44 191.739 43.9091 191.925 43.7272L194.661 41.0598C195.034 40.6961 195.034 40.1066 194.661 39.7429C194.288 39.3794 193.683 39.3794 193.31 39.743Z" fill="#095373"/>
<path d="M199.164 39.743L196.428 42.4105C196.055 42.7742 196.056 43.3637 196.428 43.7274C196.615 43.9091 196.859 44 197.104 44C197.348 44 197.593 43.9091 197.779 43.7272L200.515 41.0598C200.888 40.6961 200.888 40.1066 200.515 39.7429C200.142 39.3794 199.537 39.3794 199.164 39.743Z" fill="#095373"/>
<path d="M305.994 25.8017C305.115 21.3454 301.202 18 296.5 18C292.767 18 289.525 20.1183 287.91 23.2183C284.022 23.6317 281 26.9254 281 30.9167C281 35.1921 284.475 38.6667 288.75 38.6667H305.542C309.107 38.6667 312 35.7733 312 32.2083C312 28.7983 309.352 26.0342 305.994 25.8017Z" fill="#408E99" fill-opacity="0.55"/>
<path d="M356.994 25.8017C356.115 21.3454 352.202 18 347.5 18C343.767 18 340.525 20.1183 338.91 23.2183C335.022 23.6317 332 26.9254 332 30.9167C332 35.1921 335.475 38.6667 339.75 38.6667H356.542C360.107 38.6667 363 35.7733 363 32.2083C363 28.7983 360.352 26.0342 356.994 25.8017Z" fill="#408E99" fill-opacity="0.55"/>
<path d="M407.994 25.8017C407.115 21.3454 403.202 18 398.5 18C394.767 18 391.525 20.1183 389.91 23.2183C386.022 23.6317 383 26.9254 383 30.9167C383 35.1921 386.475 38.6667 390.75 38.6667H407.542C411.107 38.6667 414 35.7733 414 32.2083C414 28.7983 411.352 26.0342 407.994 25.8017Z" fill="#408E99" fill-opacity="0.55"/>
<path d="M253.994 25.8017C253.115 21.3454 249.202 18 244.5 18C240.767 18 237.525 20.1183 235.91 23.2183C232.022 23.6317 229 26.9254 229 30.9167C229 35.1921 232.475 38.6667 236.75 38.6667H253.542C257.107 38.6667 260 35.7733 260 32.2083C260 28.7983 257.352 26.0342 253.994 25.8017Z" fill="#408E99" fill-opacity="0.55"/>
<path d="M38.9937 24.8017C38.1154 20.3454 34.2017 17 29.5 17C25.7671 17 22.525 19.1183 20.9104 22.2183C17.0225 22.6317 14 25.9254 14 29.9167C14 34.1921 17.4746 37.6667 21.75 37.6667H38.5417C42.1067 37.6667 45 34.7733 45 31.2083C45 27.7983 42.3521 25.0342 38.9937 24.8017Z" fill="#408E99" fill-opacity="0.55"/>
<defs>
<linearGradient id="paint0_linear_593_11" x1="-7.71135e-07" y1="27" x2="207" y2="27" gradientUnits="userSpaceOnUse">
<stop stop-color="#97B9ED"/>
<stop offset="1" stop-color="white"/>
</linearGradient>
<linearGradient id="paint1_linear_593_11" x1="160" y1="27" x2="434" y2="27" gradientUnits="userSpaceOnUse">
<stop stop-color="#FF6B00" stop-opacity="0.5"/>
<stop offset="0.619792" stop-color="#989898"/>
<stop offset="1" stop-color="#96BAF0"/>
</linearGradient>
</defs>
</svg>
